<?xml version="1.0" encoding="UTF-8"?>
<svg width="512" height="512" viewBox="0 0 512 512" fill="none" xmlns="http://www.w3.org/2000/svg">
  <!-- Background circle -->
  <circle cx="256" cy="256" r="248" fill="#3B82F6"/>
  
  <!-- Heart shape -->
  <path d="M256 384c-1.333 0-2.667-.333-4-1-1.333-.667-2.5-1.5-3.5-2.5l-120-120c-16-16-24-35.333-24-58s8-42 24-58c16-16 35.333-24 58-24s42 8 58 24l11.5 11.5L268 168c2 2 4.333 3 7 3s5-.833 7-2.5l11.5-11.5c16-16 35.333-24 58-24s42 8 58 24c16 16 24 35.333 24 58s-8 42-24 58l-120 120c-1 1-2.167 1.833-3.5 2.5-1.333.667-2.667 1-4 1z" 
        fill="white"/>
</svg> 